 <svg  version="1.0" xmlns="http://www.w3.org/2000/svg"  width="300.000000pt" height="104.000000pt" viewBox="0 0 300.000000 104.000000"  preserveAspectRatio="xMidYMid meet">  <g transform="translate(0.000000,104.000000) scale(0.100000,-0.100000)" fill="#ffffff" stroke="none"> <path d="M675 761 c-39 -17 -45 -35 -46 -142 0 -100 0 -105 26 -126 34 -30 93 -31 129 -2 25 20 26 24 26 124 0 83 -3 107 -18 125 -19 24 -84 35 -117 21z m100 -141 l0 -110 -57 0 -58 0 0 110 0 110 58 0 57 0 0 -110z"/> <path d="M1700 708 c-11 -12 -20 -35 -20 -54 l0 -32 -65 -4 c-55 -3 -69 -8 -95 -33 l-30 -29 -22 21 c-54 49 -120 57 -177 22 l-34 -20 -46 45 c-45 45 -73 56 -86 36 -10 -17 -33 -11 -40 10 -14 45 -116 66 -174 36 -15 -8 -36 -27 -46 -42 -38 -58 -21 -120 46 -170 26 -20 29 -24 11 -19 -31 9 -88 -46 -73 -72 17 -33 49 -55 90 -60 52 -7 83 1 121 33 l31 27 30 -29 c35 -34 87 -38 119 -9 20 18 22 18 52 0 48 -28 107 -25 157 8 39 26 44 27 60 13 46 -42 131 -54 168 -24 8 6 20 5 34 -3 19 -9 28 -8 55 6 30 16 34 16 55 1 27 -19 60 -21 77 -4 9 9 21 7 51 -7 49 -22 107 -16 151 15 l31 22 24 -22 c20 -19 34 -22 96 -21 52 1 78 6 91 18 20 18 39 10 20 -9 -40 -40 12 -99 92 -106 71 -6 120 22 148 85 17 39 21 42 40 32 42 -23 82 -29 119 -19 43 12 79 51 72 79 -3 10 0 22 6 25 6 4 11 25 11 47 0 31 -7 47 -33 75 -44 48 -106 57 -165 24 l-40 -23 -26 20 c-38 30 -165 27 -198 -4 -30 -29 -34 -29 -70 2 -43 37 -119 36 -154 -2 -18 -19 -23 -34 -19 -51 6 -23 4 -22 -35 9 -22 18 -40 34 -40 36 0 2 11 8 25 13 14 5 31 21 37 36 11 24 9 29 -20 55 -61 54 -159 35 -207 -41 -16 -25 -30 -37 -39 -34 -8 3 -24 0 -36 -6 -28 -15 -40 0 -40 51 0 62 -51 89 -90 47z m58 -108 c-2 -55 -2 -100 1 -100 2 0 19 18 38 40 27 31 41 40 66 40 l32 -1 -49 -45 c-27 -25 -45 -49 -40 -52 6 -4 29 -28 53 -54 l44 -48 -29 0 c-22 1 -38 12 -69 50 -22 28 -43 50 -47 50 -4 0 -4 -22 -1 -50 5 -46 4 -50 -16 -50 -21 0 -21 3 -21 160 0 156 0 160 21 160 21 0 21 -4 17 -100z m-722 74 c33 -16 34 -18 18 -35 -15 -16 -19 -17 -37 -4 -28 20 -50 19 -77 -3 -34 -27 -19 -57 37 -76 94 -32 120 -91 64 -147 -25 -24 -38 -29 -78 -29 -28 0 -58 7 -71 16 -22 15 -22 17 -6 35 15 17 19 17 33 5 21 -18 40 -22 72 -13 60 16 44 64 -30 91 -55 20 -81 46 -81 84 0 33 16 59 48 76 36 20 66 20 108 0z m1062 -8 c12 -12 13 -18 3 -30 -11 -13 -15 -12 -40 1 -37 22 -79 11 -87 -24 -8 -31 10 -47 68 -65 51 -15 72 -41 71 -86 -2 -52 -39 -82 -101 -82 -64 0 -118 38 -78 53 8 3 29 -1 45 -9 41 -20 85 -2 89 38 3 23 -3 28 -43 44 -73 27 -95 49 -95 93 0 37 23 70 60 84 25 10 92 0 108 -17z m-928 -56 c0 -27 3 -30 30 -30 20 0 30 -5 30 -15 0 -10 -10 -15 -30 -15 l-30 0 0 -65 0 -65 30 0 c23 0 30 -4 30 -20 0 -16 -7 -20 -34 -20 -53 0 -66 20 -66 101 0 62 -2 69 -20 69 -11 0 -20 7 -20 15 0 8 9 15 20 15 16 0 20 7 20 30 0 23 4 30 20 30 16 0 20 -7 20 -30z m273 -60 c62 -69 13 -170 -83 -170 -40 0 -100 56 -100 93 0 104 115 152 183 77z m214 25 c34 -15 36 -17 20 -32 -13 -13 -19 -14 -29 -5 -17 17 -58 15 -80 -5 -18 -16 -24 -68 -10 -89 16 -24 50 -34 78 -24 19 8 30 8 38 0 17 -17 -21 -40 -67 -40 -103 0 -136 148 -43 194 39 19 48 20 93 1z m652 -10 c11 -11 17 -40 20 -100 3 -81 2 -85 -18 -85 -13 0 -21 6 -21 17 0 15 -1 15 -18 0 -37 -34 -122 -8 -122 37 0 33 41 65 91 72 54 7 65 27 25 45 -19 9 -31 8 -55 -4 -26 -13 -32 -13 -42 -1 -9 11 -5 17 22 29 39 18 96 13 118 -10z m204 11 c15 -8 27 -11 27 -5 0 5 9 9 21 9 20 0 21 -4 17 -119 -3 -132 -11 -151 -74 -171 -33 -11 -90 -2 -124 20 -13 8 -13 11 2 26 15 15 18 15 39 0 50 -35 119 -6 119 50 0 24 -1 24 -22 10 -12 -9 -32 -16 -45 -16 -102 0 -142 139 -55 193 33 20 59 21 95 3z m256 0 c28 -15 51 -53 51 -86 0 -18 -7 -20 -80 -20 -81 0 -93 -6 -64 -34 25 -25 62 -31 83 -12 19 17 55 12 48 -8 -10 -30 -98 -47 -138 -26 -25 14 -49 62 -49 98 0 33 32 79 64 92 31 13 54 12 85 -4z m-783 -104 c17 -11 17 -11 -3 -2 -17 8 -30 7 -54 -6 -30 -15 -33 -15 -52 5 l-21 21 24 24 23 25 32 -27 c18 -15 40 -33 51 -40z m-313 21 c17 -10 5 -23 -29 -29 -40 -7 -58 4 -48 30 5 13 13 16 38 10 17 -3 34 -8 39 -11z"/> <path d="M1320 530 c-59 -59 28 -151 90 -95 41 38 11 115 -45 115 -14 0 -34 -9 -45 -20z m68 -47 c-5 -26 -38 -29 -38 -4 0 15 6 21 21 21 14 0 19 -5 17 -17z"/> <path d="M2218 473 c-22 -6 -31 -32 -17 -49 26 -31 89 -3 89 39 0 17 -31 21 -72 10z"/> <path d="M2430 530 c-41 -41 -13 -110 45 -110 58 0 86 69 45 110 -11 11 -31 20 -45 20 -14 0 -34 -9 -45 -20z m58 -48 c2 -14 -2 -22 -11 -22 -17 0 -26 19 -19 38 7 19 27 9 30 -16z"/> <path d="M2686 539 c-14 -11 -26 -25 -26 -30 0 -5 27 -9 60 -9 64 0 72 8 40 40 -25 25 -41 25 -74 -1z"/> <path d="M453 650 c-35 -14 -43 -42 -43 -149 0 -96 1 -100 26 -120 37 -29 95 -28 131 3 26 23 28 29 31 120 4 95 4 96 -26 126 -32 31 -73 38 -119 20z m107 -140 l0 -110 -55 0 -55 0 0 110 0 110 55 0 55 0 0 -110z"/> <path d="M219 524 c-22 -24 -24 -34 -24 -125 0 -121 13 -141 91 -141 40 0 53 5 71 27 21 23 23 37 23 125 0 95 -1 99 -26 119 -39 31 -103 29 -135 -5z m121 -124 l0 -110 -55 0 -55 0 0 110 0 110 55 0 55 0 0 -110z"/> </g> </svg> 